<svg width="184" height="162" viewBox="0 0 184 162" fill="none" xmlns="http://www.w3.org/2000/svg">
<path d="M183.03 146.454H0.969569C0.774145 146.454 0.615723 146.295 0.615723 146.098C0.615723 145.902 0.774145 145.743 0.969569 145.743H183.03C183.226 145.743 183.384 145.902 183.384 146.098C183.384 146.295 183.226 146.454 183.03 146.454Z" fill="#D1D3D4"/>
<rect x="127.144" y="84.1405" width="40.6428" height="70.0579" fill="white"/>
<path fill-rule="evenodd" clip-rule="evenodd" d="M127.144 154.554H167.787C167.883 154.554 167.975 154.514 168.042 154.445C168.109 154.375 168.144 154.281 168.141 154.184V84.1405C168.141 83.9443 167.982 83.7853 167.787 83.7853H127.144C126.949 83.7853 126.79 83.9443 126.79 84.1405V154.198C126.79 154.395 126.949 154.554 127.144 154.554ZM167.433 153.843H127.498V84.4958H167.433V153.843Z" fill="#231F20"/>
<rect x="15.173" y="84.1405" width="40.6428" height="70.0579" fill="white"/>
<path fill-rule="evenodd" clip-rule="evenodd" d="M15.1729 154.554H55.8157C55.9121 154.554 56.0043 154.514 56.0711 154.445C56.1378 154.375 56.1734 154.281 56.1696 154.184V84.1405C56.1696 83.9443 56.0111 83.7853 55.8157 83.7853H15.1729C14.9775 83.7853 14.8191 83.9443 14.8191 84.1405V154.198C14.8191 154.395 14.9775 154.554 15.1729 154.554ZM55.4619 153.843H15.5268V84.4958H55.4619V153.843Z" fill="#231F20"/>
<path d="M134.709 63.8266L142.756 80.0479H120.994L134.709 63.8266Z" fill="#231F20"/>
<path fill-rule="evenodd" clip-rule="evenodd" d="M121.015 80.4032H142.756C142.89 80.4162 143.02 80.3497 143.088 80.2326C143.149 80.1271 143.149 79.9971 143.088 79.8916L135.049 63.6703C134.995 63.5638 134.891 63.4917 134.773 63.4784C134.655 63.4597 134.536 63.5058 134.462 63.5992L120.746 79.8205C120.655 79.9236 120.633 80.0714 120.69 80.1971C120.75 80.323 120.876 80.4031 121.015 80.4032ZM142.182 79.6926H121.758L134.631 64.4732L142.182 79.6926Z" fill="#231F20"/>
<path d="M72.9065 80.0479H124.717L143.513 52.3942H94.6043L72.9065 80.0479Z" fill="#231F20"/>
<path fill-rule="evenodd" clip-rule="evenodd" d="M72.8923 80.4032H124.717C124.836 80.4059 124.948 80.3468 125.014 80.2468L143.81 52.6003C143.881 52.4873 143.881 52.3438 143.81 52.2308C143.747 52.116 143.629 52.043 143.499 52.0389H94.5901C94.4822 52.0384 94.3802 52.0883 94.3141 52.1739L72.6163 79.8276C72.5323 79.9342 72.5164 80.0796 72.5751 80.202C72.6338 80.3245 72.7569 80.4025 72.8923 80.4032ZM124.554 79.6926H73.6353L94.7741 52.7495H142.869L124.554 79.6926Z" fill="#231F20"/>
<path d="M96.1612 55.08L80.6769 75.2234H119.126L133.676 55.08H96.1612Z" fill="white"/>
<path fill-rule="evenodd" clip-rule="evenodd" d="M80.6769 75.5787H119.126C119.234 75.5737 119.333 75.5185 119.395 75.4295L133.945 55.2861C134.015 55.1731 134.015 55.0296 133.945 54.9166C133.887 54.7973 133.766 54.7224 133.634 54.7247H96.1259C96.018 54.7242 95.9159 54.7741 95.8499 54.8597L80.3585 75.0032C80.2915 75.1197 80.2915 75.2632 80.3585 75.3797C80.418 75.5017 80.5416 75.579 80.6769 75.5787ZM118.906 74.8682H81.3988L96.3382 55.4211H132.982L118.906 74.8682Z" fill="#231F20"/>
<path d="M107.173 71.5571C107.022 71.556 106.889 71.459 106.84 71.3155C104.979 65.8089 102.389 59.7695 101.448 59.6274C100.322 59.6274 93.104 65.6171 86.6923 71.4718C86.5988 71.5582 86.4665 71.5878 86.3452 71.5496C86.224 71.5114 86.1323 71.4112 86.1046 71.2867C86.0769 71.1622 86.1175 71.0324 86.2111 70.9461C88.4332 68.9211 99.4803 58.924 101.511 58.924H101.589C103.401 59.2011 106.607 68.3029 107.548 71.0882C107.579 71.1776 107.572 71.2759 107.53 71.3604C107.487 71.4449 107.412 71.5082 107.322 71.5358C107.275 71.5559 107.223 71.5632 107.173 71.5571Z" fill="#D1D3D4"/>
<path d="M118.722 72.2961C118.563 72.2952 118.424 72.1876 118.383 72.0332C117.137 67.5924 115.361 62.8532 114.526 62.6045C113.691 62.3558 109.813 65.8729 106.656 69.255C106.522 69.3982 106.297 69.4046 106.154 69.2692C106.011 69.1338 106.005 68.908 106.14 68.7647C107.753 67.0382 113.132 61.4463 114.731 61.9295C116.33 62.4126 118.623 70.2711 119.062 71.8768C119.117 72.0652 119.009 72.2624 118.822 72.3174L118.722 72.2961Z" fill="#D1D3D4"/>
<path fill-rule="evenodd" clip-rule="evenodd" d="M128.538 65.1268C128.538 65.6597 129.225 66.0789 130.095 66.0789C130.965 66.0789 131.652 65.6597 131.652 65.1268C131.652 64.5939 130.944 64.1818 130.095 64.1818C129.246 64.1818 128.538 64.5939 128.538 65.1268ZM128.68 65.1268C128.68 64.7076 129.345 64.3595 130.095 64.3595V64.3808C130.845 64.3808 131.475 64.7076 131.475 65.1268C131.475 65.546 130.881 65.9013 130.095 65.9013C129.309 65.9013 128.68 65.546 128.68 65.1268Z" fill="#A7A9AC"/>
<path d="M136.28 58.0216H133.138C133.093 58.0182 133.057 57.9819 133.053 57.9363C133.053 57.888 133.09 57.8477 133.138 57.844H136.28C136.304 57.8439 136.327 57.8538 136.343 57.8714C136.359 57.889 136.367 57.9125 136.365 57.9363C136.365 57.9834 136.327 58.0216 136.28 58.0216Z" fill="#A7A9AC"/>
<path d="M124.717 80.4031C124.641 80.4038 124.567 80.3815 124.504 80.3392C124.349 80.2215 124.315 80.0016 124.426 79.8418L134.461 66.015C134.517 65.9385 134.6 65.8873 134.693 65.8726C134.786 65.8579 134.881 65.881 134.957 65.9368C135.112 66.0545 135.146 66.2744 135.035 66.4342L125 80.2895C124.927 80.3675 124.823 80.4091 124.717 80.4031Z" fill="white"/>
<path fill-rule="evenodd" clip-rule="evenodd" d="M105.616 58.6468C105.616 59.5101 106.313 60.21 107.173 60.21C108.033 60.21 108.73 59.5101 108.73 58.6468C108.73 57.7835 108.033 57.0837 107.173 57.0837C106.313 57.0837 105.616 57.7835 105.616 58.6468ZM106.324 58.6468C106.324 58.1759 106.704 57.7942 107.173 57.7942C107.399 57.7923 107.616 57.8815 107.775 58.0418C107.935 58.2021 108.024 58.4201 108.022 58.6468C108.022 59.1177 107.642 59.4995 107.173 59.4995C106.704 59.4995 106.324 59.1177 106.324 58.6468Z" fill="#D1D3D4"/>
<rect x="9.77319" y="80.6519" width="159.74" height="6.79974" fill="white"/>
<path fill-rule="evenodd" clip-rule="evenodd" d="M9.77328 87.8068H169.521C169.716 87.8068 169.875 87.6478 169.875 87.4516V80.6518C169.871 80.4572 169.715 80.3003 169.521 80.2966H9.77328C9.57944 80.3003 9.4232 80.4572 9.41943 80.6518V87.4516C9.41943 87.6478 9.57786 87.8068 9.77328 87.8068ZM169.139 87.0963H10.1271V81H169.139V87.0963Z" fill="#231F20"/>
<path d="M69.8563 117.436C70.0049 117.94 61.0668 150.156 61.0668 150.156L73.5575 152.173L88.32 107.666L69.8563 117.436Z" fill="white"/>
<path fill-rule="evenodd" clip-rule="evenodd" d="M73.5009 152.529H73.5575C73.7072 152.531 73.8413 152.436 73.8901 152.294L88.6597 107.787C88.7 107.649 88.6589 107.5 88.5535 107.403C88.4412 107.312 88.2862 107.295 88.1572 107.361L69.6935 117.13C69.5676 117.195 69.4924 117.329 69.5024 117.471C69.4034 118.537 64.2089 137.515 60.72 150.063C60.6979 150.162 60.713 150.266 60.7624 150.354C60.8193 150.439 60.9093 150.496 61.0101 150.511L73.5009 152.529ZM73.3311 151.776L61.5267 149.864H61.5126C66.8769 130.524 69.7855 119.717 70.1747 117.677L87.7255 108.398L73.3311 151.776Z" fill="#231F20"/>
<path d="M60.3096 148.763L58.4059 154.774L88.32 157.097C86.9153 154.257 84.4862 152.059 81.5262 150.951C78.4194 149.857 75.072 148.55 75.072 148.55L73.5576 152.173L60.3096 148.763Z" fill="#231F20"/>
<path fill-rule="evenodd" clip-rule="evenodd" d="M58.4059 155.129L88.32 157.453C88.4619 157.488 88.6101 157.427 88.688 157.303C88.7486 157.195 88.7486 157.063 88.688 156.955C87.2479 154.022 84.7433 151.754 81.689 150.617C79.4576 149.833 77.0842 148.924 75.9394 148.486C75.5084 148.321 75.2516 148.223 75.2419 148.223C75.1565 148.188 75.0607 148.188 74.9757 148.224C74.8907 148.26 74.8235 148.329 74.789 148.415L73.3736 151.754L60.4228 148.422C60.2418 148.375 60.0559 148.478 59.9982 148.656L58.0945 154.667C58.0617 154.771 58.078 154.884 58.1387 154.974C58.1994 155.064 58.2979 155.121 58.4059 155.129ZM87.7114 156.699L58.873 154.454L60.5431 149.211L73.4656 152.522C73.638 152.563 73.815 152.473 73.8831 152.308L75.2631 149.012C75.3009 149.026 75.3418 149.042 75.3855 149.058C76.4 149.445 78.991 150.434 81.413 151.285C84.0804 152.292 86.3101 154.208 87.7114 156.699Z" fill="#231F20"/>
<path d="M39.3123 117.862L37.1892 151.797C37.1892 151.797 30.0132 152.046 28.2157 153.31C26.4182 154.575 24.9532 160.302 24.9532 160.302H27.1896C27.1896 160.302 28.4917 156.039 29.9212 155.527C31.3508 155.016 39.4751 154.817 39.4751 154.817C39.4751 154.817 43.3957 156.337 44.0256 158.945C44.5209 160.998 44.3794 161.474 44.3794 161.474H46.8563C46.8503 160.306 46.6836 159.144 46.3609 158.021C45.8656 156.6 44.0043 154.902 44.0043 154.902C44.0043 154.902 48.1019 154.987 49.4677 154.987C50.8336 154.987 52.256 157.602 52.256 157.602H54.924C54.924 157.602 52.1357 152.884 50.3311 152.55C48.5265 152.216 43.8982 151.406 43.8982 151.406L42.6385 119.788L39.3123 117.862Z" fill="#231F20"/>
<path fill-rule="evenodd" clip-rule="evenodd" d="M44.4077 161.837H46.8847C47.0746 161.833 47.2277 161.679 47.2314 161.488C47.2283 160.286 47.0543 159.089 46.7148 157.936C46.2876 156.951 45.6721 156.06 44.9031 155.314C45.1024 155.317 45.3267 155.321 45.5671 155.325C46.8808 155.347 48.6754 155.378 49.489 155.378C50.324 155.378 51.4564 156.87 51.9659 157.808C52.0292 157.921 52.148 157.991 52.2773 157.993H54.9453C55.0745 157.991 55.1933 157.921 55.2567 157.808C55.3199 157.698 55.3199 157.563 55.2567 157.453C54.9665 156.955 52.3268 152.593 50.4302 152.237C48.9016 151.946 45.3065 151.321 44.2733 151.143L43.0207 119.809C43.0164 119.688 42.9493 119.577 42.8437 119.518L39.4893 117.578C39.3831 117.521 39.2557 117.521 39.1496 117.578C39.0441 117.639 38.9752 117.748 38.9656 117.869L36.885 151.491C35.4413 151.555 29.7019 151.889 28.0388 153.054C26.1564 154.376 24.6985 160.011 24.6419 160.245C24.6162 160.351 24.6396 160.463 24.7056 160.55C24.7715 160.637 24.8729 160.689 24.9816 160.693H27.2391C27.3956 160.69 27.5328 160.587 27.5788 160.437C28.06 158.867 29.1711 156.238 30.0911 155.897C31.2022 155.449 37.161 155.236 39.461 155.186C39.928 155.385 43.1764 156.813 43.7071 159.037C43.9494 159.792 44.0712 160.581 44.068 161.375C44.0347 161.483 44.053 161.601 44.1176 161.694C44.1886 161.783 44.2949 161.835 44.4077 161.837ZM46.5096 161.126H44.7757C44.7132 160.357 44.5758 159.595 44.3653 158.852C43.7 156.096 39.7653 154.547 39.5954 154.483H39.461C39.1284 154.483 31.1314 154.703 29.7868 155.193C28.4422 155.683 27.2816 158.945 26.956 159.947H25.4416C25.944 158.142 27.1754 154.497 28.4493 153.602C29.8505 152.642 35.2644 152.252 37.2317 152.181C37.4137 152.174 37.5606 152.029 37.5714 151.847L39.6308 118.452L42.32 120.008L43.5585 151.427C43.5631 151.598 43.6879 151.741 43.8557 151.768C43.9124 151.776 48.5053 152.571 50.2816 152.905C51.4705 153.126 53.353 155.754 54.3013 157.254H52.4754C52.0933 156.593 50.8336 154.639 49.4819 154.639C48.3337 154.639 45.2298 154.577 44.2951 154.559C44.1295 154.556 44.032 154.554 44.0256 154.554C43.8781 154.557 43.7459 154.646 43.6859 154.781C43.6353 154.918 43.6716 155.072 43.7779 155.172C43.7787 155.173 43.7824 155.176 43.7888 155.182C43.9403 155.323 45.601 156.867 46.0425 158.142C46.3291 159.111 46.4861 160.115 46.5096 161.126Z" fill="#231F20"/>
<path d="M80.231 96.2195C80.231 96.2195 108.496 97.7329 110.28 101.776C112.063 105.819 98.9566 150.276 98.9566 150.276C98.9566 150.276 112.792 155.079 110.527 156.088C108.263 157.097 85.6166 155.079 85.6166 155.079L96.3523 113.869L68.3843 111.979L80.231 96.2195Z" fill="white"/>
<path fill-rule="evenodd" clip-rule="evenodd" d="M85.6096 155.435C87.4284 155.598 100.33 156.728 106.968 156.728C108.224 156.806 109.485 156.7 110.711 156.415C110.989 156.327 111.176 156.068 111.171 155.776C111.115 154.319 103.189 151.371 99.4308 150.056C100.719 145.686 112.375 105.606 110.627 101.634C110.329 100.959 109.431 98.9195 94.6468 97.129C87.4284 96.2479 80.3373 95.8642 80.2665 95.8642C80.1483 95.8491 80.0321 95.9046 79.9693 96.0063L68.1154 111.794C68.0343 111.897 68.0179 112.037 68.073 112.157C68.1314 112.271 68.243 112.348 68.3702 112.363L95.9136 114.224L85.2982 154.987C85.2706 155.089 85.2887 155.198 85.3478 155.286C85.4092 155.371 85.5048 155.426 85.6096 155.435ZM110.407 155.762C108.659 156.543 92.6511 155.342 86.0838 154.76L96.7133 113.997C96.7337 113.894 96.7134 113.787 96.6567 113.698C96.5922 113.614 96.4939 113.562 96.3878 113.556L69.0708 111.702L80.3939 96.589C88.3342 97.0224 108.532 98.7063 109.947 101.925C111.363 105.144 102.247 137.856 98.6241 150.184C98.5675 150.366 98.6644 150.561 98.8434 150.624C104.123 152.451 109.94 154.902 110.407 155.762Z" fill="#231F20"/>
<path d="M70.6418 70.9532C70.6418 70.9532 85.1637 89.1426 91.3702 88.6382C97.5766 88.1337 115.354 65.7095 115.354 65.7095C118.567 61.8584 122.162 56.97 119.862 51.6624C119.635 51.1508 119.239 50.6037 118.687 50.6463C118.455 50.6821 118.234 50.7722 118.043 50.9092L116.062 52.1313C116.125 51.5842 115.432 51.1934 114.901 51.3426C114.384 51.5455 113.954 51.9222 113.684 52.4084C111.624 55.35 110.294 58.1495 110.407 61.7732L89.6292 72.4311L81.3846 63.2724" fill="white"/>
<path d="M91.1224 89.0005C84.6754 89.0005 70.9532 71.9479 70.3658 71.1734C70.2641 71.0198 70.2965 70.8135 70.4403 70.6987C70.5842 70.5838 70.7917 70.5987 70.9178 70.7329C71.0594 70.9105 85.0151 88.2971 91.1012 88.2971H91.3418C97.3289 87.814 114.887 65.7237 115.057 65.4963C118.376 61.5316 121.723 56.8847 119.522 51.8187C119.437 51.6197 119.14 50.9874 118.701 51.0158C118.524 51.0481 118.357 51.1211 118.213 51.229L116.217 52.444C116.102 52.5154 115.957 52.5147 115.842 52.4422C115.728 52.3696 115.665 52.2379 115.679 52.1029C115.688 51.9984 115.64 51.8973 115.552 51.84C115.389 51.709 115.177 51.657 114.972 51.6979C114.536 51.8845 114.175 52.2121 113.946 52.6287C112.205 55.1155 110.612 57.9434 110.733 61.7803C110.737 61.9171 110.663 62.0442 110.542 62.1071L89.7637 72.765C89.6209 72.8387 89.4465 72.8066 89.3391 72.6869L81.1015 63.514C81.0345 63.4473 80.9968 63.3564 80.9968 63.2617C80.9968 63.167 81.0345 63.0762 81.1015 63.0095C81.2415 62.8732 81.464 62.8732 81.604 63.0095L89.6575 71.9479L110.004 61.5387C109.94 57.6095 111.568 54.7176 113.344 52.1811C113.663 51.6263 114.163 51.1995 114.759 50.9732C115.195 50.8681 115.654 50.9761 115.998 51.2645C116.093 51.3479 116.174 51.4463 116.238 51.5558L117.824 50.5824C118.063 50.4141 118.34 50.3068 118.63 50.2697C119.246 50.22 119.791 50.6747 120.145 51.499C122.707 57.3963 118.078 62.9384 115.587 65.9155C114.88 66.825 97.6686 88.4605 91.3772 88.9721L91.1224 89.0005Z" fill="#231F20"/>
<path d="M23.1062 67.8482C23.1062 67.8482 15.6259 84.8653 18.4001 86.6842C21.1742 88.5032 38.0598 86.6842 38.0598 86.6842L36.5948 64.6579" fill="white"/>
<path d="M24.8188 87.8068C21.797 87.8068 19.1573 87.5937 18.1948 86.9542C17.7136 86.6416 16.2416 85.6824 19.3767 76.4668C20.8841 72.026 22.7594 67.7487 22.7807 67.706C22.8214 67.5761 22.9325 67.481 23.0668 67.4612C23.201 67.4414 23.3347 67.5004 23.4109 67.6131C23.4871 67.7258 23.4925 67.8723 23.4247 67.9903C20.5939 74.4632 16.7582 85.1708 18.5841 86.3574C20.7071 87.7784 32.7379 86.8405 37.6917 86.3574L36.2764 64.6792C36.2627 64.483 36.41 64.3128 36.6054 64.2991C36.8009 64.2853 36.9704 64.4333 36.9841 64.6295L38.449 86.6558C38.4613 86.847 38.3204 87.0136 38.1305 87.0324C37.6351 87.0608 30.5016 87.8068 24.8188 87.8068Z" fill="#231F20"/>
<path d="M29.1994 96.6884C29.1994 96.6884 25.5407 104.845 29.4401 109.989C33.3394 115.134 87.4708 115.752 87.4708 115.752L91.3561 96.2195L68.7099 93.1216L67.3936 86.3645L29.1994 96.6884Z" fill="white"/>
<path fill-rule="evenodd" clip-rule="evenodd" d="M59.8849 115.155C73.784 115.944 87.3504 116.107 87.4849 116.107C87.6553 116.106 87.801 115.984 87.8317 115.816L91.6744 96.2621C91.6952 96.1681 91.6746 96.0697 91.6178 95.9921C91.563 95.9096 91.4752 95.8551 91.3772 95.8429L69.0071 92.7876L67.7403 86.2721C67.7218 86.178 67.6655 86.0958 67.5846 86.0447C67.5015 85.9884 67.3974 85.9727 67.3015 86.0021L29.0861 96.326C28.9818 96.3524 28.8955 96.4259 28.8526 96.525C28.6969 96.866 25.1584 104.938 29.1357 110.181C30.82 112.419 41.1664 114.089 59.8849 115.155ZM29.7231 109.776C26.2837 105.243 28.9941 98.1166 29.4541 96.9868L67.1671 86.805L68.4055 93.1997C68.4342 93.3484 68.5535 93.4625 68.7027 93.4839L90.9526 96.525L87.1947 115.404C68.448 115.176 32.7095 113.713 29.7231 109.776Z" fill="#231F20"/>
<path d="M51.3784 27.9734C50.8261 27.6406 50.345 27.2011 49.9631 26.6803C49.433 25.9173 49.049 25.0619 48.8308 24.1579C46.9129 17.1947 46.8988 8.27763 53.0769 3.51C56.7745 0.673133 61.6126 -0.187647 66.056 1.20078C69.0566 2.18131 71.6043 6.32368 72.9418 9.01657C74.0388 11.1979 74.7818 13.571 76.084 15.6316C77.3861 17.6921 79.4597 19.4968 81.8941 19.6176C79.9407 20.715 77.595 20.8563 75.5249 20.0013C76.4978 21.3125 78.1441 21.9319 79.7357 21.5858C78.3203 22.7155 76.2963 22.6729 74.5129 22.2963C72.7295 21.9197 70.9744 21.3513 69.1415 21.5858C66.3108 21.9055 64.4708 23.9945 62.2557 25.5079C59.4461 27.3553 54.5914 29.8421 51.3784 27.9734Z" fill="white"/>
<path fill-rule="evenodd" clip-rule="evenodd" d="M51.2157 28.2861C52.0791 28.7726 53.0566 29.0179 54.0464 28.9966C57.2593 28.9966 60.7978 26.8721 62.4467 25.7211C63.02 25.3232 63.572 24.8968 64.1098 24.4776C64.1797 24.4244 64.2495 24.3713 64.3191 24.3182C65.8207 23.173 67.2628 22.0731 69.1769 21.8558C70.521 21.7814 71.868 21.9352 73.1612 22.3105L73.1612 22.3105C73.5858 22.41 74.0104 22.5095 74.435 22.5876C76.827 23.0495 78.6812 22.7795 79.948 21.7776C80.0808 21.6746 80.1233 21.492 80.0496 21.3405C79.9759 21.189 79.8063 21.1104 79.6437 21.1524C78.6934 21.3633 77.6986 21.1952 76.8695 20.6834C78.6371 21.0159 80.4648 20.7168 82.0357 19.8379C82.1764 19.7636 82.247 19.6012 82.2055 19.4471C82.1704 19.2935 82.0368 19.1828 81.88 19.1771C78.9855 19.035 77.0606 16.4629 76.3529 15.3616C75.5977 14.0845 74.9446 12.7492 74.3997 11.3684C74.0387 10.5087 73.6566 9.62053 73.232 8.7679C71.9793 6.24553 69.368 1.85448 66.155 0.810002C61.5987 -0.62323 56.6327 0.259441 52.8433 3.17605C45.0941 9.1729 47.5569 20.7829 48.491 24.1934C48.7185 25.1504 49.1217 26.0564 49.68 26.865C50.0882 27.4405 50.6112 27.9244 51.2157 28.2861ZM53.2609 3.76579C55.7111 1.8839 58.7107 0.865049 61.7957 0.866844C63.2052 0.860072 64.607 1.07587 65.9498 1.50632C69.0353 2.50816 71.6467 7.155 72.6233 9.10895C72.9822 9.77808 73.2769 10.4794 73.5664 11.1686C73.6366 11.3356 73.7065 11.5019 73.7769 11.6668C74.3349 13.0836 75.0071 14.4524 75.7867 15.7595C76.8646 17.6479 78.6101 19.0605 80.6769 19.7171C79.0547 20.2974 77.2768 20.2595 75.6806 19.6105C75.5358 19.5455 75.3654 19.5897 75.2701 19.7171C75.1758 19.8434 75.1758 20.0171 75.2701 20.1434C75.9771 21.0948 77.0255 21.732 78.1929 21.9197C77.015 22.1953 75.7898 22.1953 74.612 21.9197C74.2988 21.8611 73.9857 21.7905 73.6726 21.7199C73.5682 21.6964 73.4638 21.6728 73.3593 21.6497C71.9813 21.2495 70.5449 21.0909 69.1132 21.1808C66.9123 21.4295 65.2704 22.7084 63.6852 23.9447C63.1615 24.3568 62.6166 24.7832 62.0646 25.1597C60.4652 26.2468 54.9806 29.6574 51.5695 27.6679C51.0515 27.3623 50.6011 26.9537 50.2461 26.4671C49.7375 25.7319 49.3703 24.9078 49.1633 24.0371C48.2504 20.7261 45.8655 9.49974 53.2609 3.76579Z" fill="#231F20"/>
<path d="M70.5569 22.9145C70.5569 22.9145 72.4889 28.9824 71.4769 29.8421C70.4649 30.7018 68.363 29.3518 68.363 29.3518" fill="white"/>
<path d="M70.6206 30.4887C69.755 30.4143 68.9211 30.1263 68.1932 29.6503C68.0795 29.5852 68.0109 29.4623 68.0148 29.331C68.0187 29.1996 68.0946 29.0812 68.212 29.0231C68.3294 28.9649 68.4691 28.9766 68.5753 29.0534C69.0707 29.3661 70.6206 30.1405 71.2646 29.5721C71.7529 29.1529 71.123 25.849 70.2172 23.0282C70.1615 22.8401 70.265 22.6416 70.4507 22.5805C70.6363 22.5199 70.8359 22.6216 70.8966 22.8079C71.3636 24.2858 72.8144 29.2026 71.7246 30.1121C71.4162 30.3714 71.0224 30.5057 70.6206 30.4887Z" fill="#231F20"/>
<path d="M71.7316 15.9584C73.3806 18.3174 71.7316 21.8558 71.024 24.2645C70.0473 27.656 68.9929 31.0216 67.8606 34.361C67.1529 36.4926 61.5763 34.9508 60.7836 34.0342L59.2692 42.7808L47.5427 38.7095L51.3147 28.1013C51.3147 28.1013 55.0867 29.1955 58.4836 25.4226C61.8806 21.6497 64.2443 12.0292 64.2443 12.0292C64.2443 12.0292 70.1252 13.6492 71.7316 15.9584Z" fill="white"/>
<path fill-rule="evenodd" clip-rule="evenodd" d="M59.1489 43.1361H59.2622C59.3151 43.1322 59.3661 43.1151 59.4108 43.0863C59.5018 43.0367 59.5645 42.9474 59.5806 42.8447L60.996 34.6595C62.6952 35.5479 64.619 35.909 66.5231 35.6968C67.2424 35.6338 67.8684 35.1774 68.1508 34.5103C69.2831 31.1779 70.3446 27.7745 71.3212 24.3995C71.4416 23.9945 71.5831 23.5611 71.7317 23.1063L71.7457 23.0638C72.5145 20.7273 73.4425 17.9066 71.9794 15.7879C70.3443 13.4477 64.7279 11.8492 64.3039 11.7286C64.2967 11.7265 64.291 11.7249 64.2868 11.7237C64.2006 11.6882 64.104 11.6882 64.0179 11.7237C63.9353 11.771 63.8763 11.8509 63.8551 11.9439C63.8551 12.0434 61.3923 21.6284 58.1936 25.1811C55.0505 28.6718 51.6478 27.8271 51.3893 27.7629C51.3847 27.7618 51.3811 27.7609 51.3785 27.7603C51.2011 27.7084 51.0144 27.8053 50.9539 27.9805L47.2102 38.6242C47.1783 38.7138 47.1783 38.8117 47.2102 38.9013C47.2511 38.9865 47.3254 39.0509 47.4154 39.0789L59.1489 43.1361ZM58.9862 42.3118L47.9886 38.4892L51.5059 28.4992C52.532 28.6982 55.7449 28.9468 58.7102 25.6571C61.7957 22.2324 63.9896 14.2887 64.4637 12.4768C65.7517 12.8605 70.1394 14.3384 71.4132 16.1574C72.6711 17.9535 71.8037 20.6087 71.1003 22.7615L71.0736 22.8434C71.0253 22.9956 70.9771 23.1448 70.9298 23.2911C70.8315 23.5953 70.7373 23.8867 70.656 24.165C69.6865 27.5329 68.6179 30.9221 67.4926 34.2403C67.3652 34.6239 66.9972 34.8797 66.3886 35.0005C64.5911 35.3558 61.5268 34.3895 61.0173 33.7997C60.9279 33.6963 60.7873 33.6536 60.6558 33.69C60.5244 33.7264 60.4254 33.8355 60.4016 33.9703L58.9862 42.3118Z" fill="#231F20"/>
<path d="M68.4904 31.8032C68.4904 31.8032 65.412 32.6842 64.7821 29.565L68.4904 31.8032Z" fill="white"/>
<path d="M67.5493 32.2721C66.942 32.2877 66.3422 32.1353 65.8154 31.8316C65.0521 31.3371 64.5368 30.5377 64.4 29.6361C64.3653 29.4418 64.4917 29.2553 64.6845 29.2166C64.8772 29.1779 65.0654 29.3012 65.1077 29.4939C65.2027 30.1942 65.5883 30.8214 66.1693 31.2205C66.85 31.5646 67.6315 31.6504 68.3702 31.4621C68.4966 31.4278 68.6316 31.4639 68.7244 31.5567C68.8172 31.6495 68.8536 31.7849 68.8199 31.9119C68.7863 32.039 68.6877 32.1384 68.5613 32.1726C68.2292 32.2471 67.8894 32.2805 67.5493 32.2721Z" fill="#231F20"/>
<path d="M63.4588 23.2626C63.6025 22.3855 63.5021 21.4856 63.1686 20.6621C62.9961 19.9972 62.7292 19.3607 62.376 18.7721C62.0042 18.1846 61.393 17.7919 60.7059 17.6992C60.0885 17.6881 59.4968 17.9475 59.0853 18.4097C58.6721 18.8549 58.3669 19.3898 58.1936 19.9729C57.3606 22.5327 57.9454 25.3441 59.7293 27.3553L59.5948 27.0995" fill="white"/>
<path d="M59.7293 27.7105C59.6303 27.7095 59.5359 27.6685 59.4674 27.5968C57.5951 25.479 56.9811 22.5235 57.8539 19.8308C58.0436 19.1962 58.3779 18.6148 58.8305 18.1326C59.3236 17.6087 60.0165 17.3216 60.7342 17.344C61.5318 17.4347 62.2439 17.8878 62.6662 18.5732C63.0421 19.189 63.3258 19.8569 63.5083 20.5555C63.8631 21.4407 63.966 22.4074 63.8056 23.3479C63.7537 23.5394 63.5581 23.6534 63.3668 23.6037C63.1799 23.5518 63.0694 23.3585 63.1191 23.1703C63.2377 22.3581 63.1375 21.5289 62.829 20.7687C62.6702 20.1373 62.4173 19.5336 62.0788 18.9782C61.7715 18.4702 61.2506 18.1302 60.6634 18.0545C60.1539 18.0446 59.6645 18.2541 59.3188 18.63C58.9424 19.0346 58.6639 19.5209 58.505 20.0511C57.7611 22.3362 58.1931 24.8429 59.6585 26.7442C59.758 26.7716 59.8422 26.8382 59.892 26.929L60.0194 27.1847C60.1042 27.3429 60.0551 27.5399 59.9062 27.6395C59.8554 27.68 59.7939 27.7047 59.7293 27.7105Z" fill="#231F20"/>
<ellipse cx="70.2965" cy="19.9852" rx="1.25739" ry="0.5" transform="rotate(-77.39 70.2965 19.9852)" fill="#231F20"/>
<path d="M60.7766 34.0342C59.239 33.0325 57.7664 31.9337 56.3676 30.7445C56.3676 30.7445 55.66 36.8976 59.8566 38.3116L60.7766 34.0342Z" fill="#231F20"/>
<path fill-rule="evenodd" clip-rule="evenodd" d="M59.7434 38.6668C59.7808 38.6736 59.8192 38.6736 59.8566 38.6668C59.9181 38.6669 59.9787 38.6523 60.0335 38.6242C60.1202 38.5732 60.1817 38.4882 60.2034 38.3897L61.1234 34.1266C61.1503 33.9832 61.089 33.8376 60.9677 33.7571C59.4438 32.7597 57.9831 31.6681 56.5942 30.4887C56.4924 30.4069 56.3551 30.3853 56.2332 30.4318C56.1131 30.4821 56.0293 30.5934 56.0138 30.7232C55.9855 30.9861 55.3415 37.1818 59.7434 38.6668ZM59.6018 37.8284C56.8843 36.6205 56.6862 32.9897 56.6862 31.4692C57.8694 32.4427 59.1024 33.3534 60.3803 34.1976L59.6018 37.8284Z" fill="#231F20"/>
<path d="M27.0055 99.3813C27.0055 99.3813 27.6424 55.8971 34.139 45.8858C40.6356 35.8745 57.4929 33.615 65.5323 39.5834C73.5716 45.5518 69.7006 91.1676 69.7006 91.1676C69.7006 91.1676 44.068 99.3813 27.0055 99.3813Z" fill="#E7816B"/>
<path d="M59.9203 37.0255C64.1966 38.7696 68.1933 41.1375 71.7812 44.0526C77.3437 48.6924 89.0843 68.6439 89.0843 68.6439L73.6 78.0584L59.7009 60.8495L59.9203 37.0255Z" fill="#E7816B"/>
<path d="M40.8338 39.7326C40.8338 39.7326 32.7307 40.6492 28.4421 49.5805C26.1209 54.4263 20.1763 70.0721 20.1763 70.0721L38.0526 72.1397L40.8338 39.7326Z" fill="#E7816B"/>
<path d="M72.4394 76.9713C72.3264 76.9708 72.2208 76.9152 72.1563 76.8221L58.3492 57.9434C58.2929 57.8681 58.2687 57.7733 58.282 57.68C58.2953 57.5868 58.3449 57.5026 58.42 57.4461C58.5791 57.3339 58.7982 57.3685 58.9154 57.5242L72.7224 76.4029C72.8029 76.5106 72.8158 76.6546 72.7559 76.7749C72.6959 76.8953 72.5734 76.9713 72.4394 76.9713Z" fill="#231F20"/>
<path d="M113.655 55.6342L117.109 44.8697L118.185 45.1824L116.012 55.7976C116.012 55.7976 114.483 57.2755 113.655 55.6342Z" fill="#231F20"/>
<path fill-rule="evenodd" clip-rule="evenodd" d="M114.476 56.7639H114.717C115.294 56.7249 115.839 56.4863 116.26 56.0889C116.31 56.0412 116.345 55.9793 116.359 55.9113L118.531 45.2534C118.568 45.0723 118.461 44.893 118.284 44.8413L117.208 44.5287C117.023 44.4809 116.833 44.5827 116.769 44.7632L113.337 55.5418C113.302 55.6283 113.302 55.7254 113.337 55.8118C113.536 56.2989 113.963 56.6554 114.476 56.7639ZM114.568 56.0463C114.324 55.9863 114.119 55.8195 114.009 55.5916L117.314 45.3103L117.746 45.4311L115.658 55.6129C115.365 55.8944 114.974 56.0499 114.568 56.0463Z" fill="#231F20"/>
<path d="M48.3496 31.2632C41.9804 29.8421 34.9034 30.8368 29.7585 34.8158C27.5781 36.4136 25.94 38.6461 25.0665 41.2105C24.2263 43.8258 24.7183 46.6886 26.3828 48.87C31.2659 54.7603 41.9874 54.7318 48.6185 52.8063C53.1407 51.4989 66.5302 45.1184 62.8431 38.8516C60.1893 34.3682 53.1265 32.2934 48.3496 31.2632Z" fill="#E7816B"/>
<path d="M40.2394 53.3392C36.0193 53.2163 31.8983 52.0262 28.2582 49.8789C28.1768 49.8305 28.1186 49.7507 28.0972 49.6581C28.0758 49.5655 28.0931 49.4682 28.145 49.3887C28.2507 49.2241 28.4691 49.1764 28.6333 49.2821C28.7182 49.3389 37.4723 54.8029 45.7594 51.6482C49.7366 50.1347 52.1286 47.4489 54.4145 44.8555C56.941 42.0134 59.3259 39.3276 63.4446 38.9511C63.5386 38.9432 63.6317 38.9733 63.7035 39.0347C63.7752 39.096 63.8196 39.1836 63.8268 39.2779C63.8366 39.3715 63.8083 39.465 63.7483 39.5373C63.6884 39.6096 63.6018 39.6544 63.5083 39.6616C59.6726 40.0097 57.4788 42.5037 54.9453 45.3458C52.6948 47.8824 50.1471 50.7529 46.0071 52.3303C44.1611 53.0138 42.2069 53.3557 40.2394 53.3392Z" fill="#231F20"/>
<path d="M27.6425 83.8421C27.5486 83.8384 27.46 83.7974 27.3963 83.7281C27.3326 83.6588 27.299 83.5669 27.3028 83.4726C27.8194 72.225 30.1336 56.0392 30.1336 55.8758C30.1661 55.6835 30.3444 55.5517 30.5369 55.5774C30.7274 55.6066 30.8595 55.7835 30.8342 55.9753C30.8342 56.1387 28.4917 72.3174 28.0034 83.501C27.9957 83.6945 27.8352 83.8461 27.6425 83.8421Z" fill="#231F20"/>
<path d="M81.9154 154.319H96.9539C96.9539 154.319 98.5887 150.66 102.113 150.156C102.113 150.156 115.828 155.975 113.811 157.168C111.794 158.362 80.8539 158.234 80.8539 158.234L81.9154 154.319Z" fill="#231F20"/>
<path fill-rule="evenodd" clip-rule="evenodd" d="M80.8468 158.597H84.0102C92.2124 158.597 112.275 158.49 113.995 157.453C114.235 157.325 114.38 157.071 114.37 156.799C114.278 155.037 105.078 151.001 102.247 149.807C102.187 149.79 102.124 149.79 102.063 149.807C98.8576 150.269 97.1521 153.154 96.7345 153.971H81.9154C81.7536 153.969 81.6108 154.077 81.5687 154.234L80.5071 158.149C80.4779 158.257 80.5016 158.373 80.5708 158.462C80.6369 158.547 80.7389 158.597 80.8468 158.597ZM113.634 156.863C112.233 157.694 93.7198 157.922 81.3139 157.886L82.1844 154.674H96.9539C97.0934 154.676 97.2209 154.596 97.2794 154.468C97.2936 154.433 98.8505 151.044 102.063 150.518C107.64 152.891 113.634 155.982 113.634 156.863Z" fill="#231F20"/>
<path d="M70.5498 119.368C80.1249 117.343 86.5437 112.846 82.7787 106.778C79.0138 100.71 51.9729 104.646 46.6864 100.149C41.4 95.6511 43.2895 71.7987 37.4864 67.7132C31.6833 63.6276 6.80796 59.4995 4.02673 64.6579C1.2455 69.8163 4.02673 107.353 12.1298 115.688C20.2329 124.022 61.2083 121.301 70.5498 119.368Z" fill="#231F20"/>
<path fill-rule="evenodd" clip-rule="evenodd" d="M40.8622 121.749H42.4615C53.8483 121.749 65.7659 120.704 70.6419 119.624C77.74 118.125 82.3966 115.489 83.812 112.206C84.5763 110.43 84.3357 108.512 83.1043 106.522C80.9742 103.097 72.0785 102.735 63.48 102.387L63.4538 102.386C56.477 102.102 49.2737 101.809 46.9271 99.8076C44.4575 97.6976 43.5728 90.8707 42.7166 84.2634L42.7163 84.2613L42.7123 84.2304C41.7723 77.0068 40.8011 69.5432 37.6846 67.3508C32.7308 63.8834 14.9465 60.5439 7.25386 62.3771C5.41386 62.8461 4.23201 63.5495 3.7154 64.5087C0.707703 70.1147 3.8357 107.666 11.8468 115.965C16.3406 120.569 30.1052 121.656 40.8622 121.749ZM7.3954 63.1018C9.11762 62.7446 10.874 62.5801 12.6323 62.6116C21.1175 62.6116 33.4314 65.2903 37.2529 67.9974C40.1262 70.0082 41.0815 77.3692 41.9945 84.4176C42.9074 91.4661 43.7708 98.1237 46.4459 100.412C48.9794 102.579 55.9997 102.863 63.4305 103.161L63.4547 103.162C71.8828 103.503 80.5514 103.854 82.4816 106.963C83.5855 108.746 83.8049 110.444 83.1397 112.007C81.8588 115.034 77.2446 117.592 70.472 119.013C61.0809 120.967 20.3179 123.639 12.3846 115.461C4.58586 107.417 1.59232 69.9442 4.33816 64.8497C4.74863 64.0753 5.78186 63.4855 7.3954 63.1018Z" fill="#231F20"/>
<path d="M88.32 99.7366H88.2634L65.4474 95.7292C65.252 95.6958 65.1205 95.5097 65.1537 95.3135C65.1869 95.1173 65.3723 94.9853 65.5677 95.0187L88.3837 99.026C88.5791 99.0437 88.7233 99.2171 88.7057 99.4133C88.6881 99.6095 88.5154 99.7542 88.32 99.7366Z" fill="#D1D3D4"/>
<path d="M154.1 146.368L153.392 146.29C153.392 146.084 155.622 125.514 148.531 116.377L149.09 115.944C152.147 119.88 153.923 126.204 154.355 134.737C154.551 138.615 154.466 142.503 154.1 146.368Z" fill="#231F20"/>
<path d="M151.658 148.99C151.647 148.751 151.671 148.512 151.729 148.28C153.421 137.515 150.554 132.499 147.851 130.183L148.311 129.643C151.142 132.073 154.171 137.302 152.43 148.393C152.387 148.663 152.359 148.841 152.359 148.912L151.658 148.99Z" fill="#231F20"/>
<path d="M147.986 125.614C147.413 125.277 146.766 125.087 146.103 125.06C144.914 124.889 143.707 125.22 142.77 125.976C142.536 126.204 142.331 126.587 142.543 126.836C142.669 126.952 142.827 127.026 142.996 127.049C143.938 127.319 144.674 128.058 144.942 129.003C144.454 128.641 144.037 128.179 143.527 127.817C143.056 127.42 142.45 127.221 141.836 127.262C141.171 127.42 140.585 127.814 140.187 128.371C139.73 128.862 139.35 129.42 139.062 130.026C138.76 130.635 138.671 131.328 138.807 131.994C139.453 131.808 140.13 131.762 140.795 131.859C141.268 131.902 141.718 132.088 142.083 132.392C142.194 132.478 142.273 132.598 142.31 132.733C142.334 133.019 142.143 133.278 141.864 133.337C141.594 133.401 141.313 133.401 141.043 133.337C140.466 133.219 139.882 133.136 139.295 133.089C139.075 133.06 138.852 133.075 138.637 133.131C138.119 133.422 137.836 134.006 137.929 134.595C137.919 134.836 138.008 135.07 138.177 135.242C138.467 135.469 138.885 135.306 139.224 135.163C139.817 134.915 140.451 134.78 141.093 134.766C141.165 134.759 141.238 134.771 141.305 134.801C141.377 134.852 141.425 134.931 141.436 135.019C141.447 135.107 141.42 135.196 141.362 135.263C141.242 135.397 141.084 135.489 140.909 135.526C140.423 135.68 139.926 135.797 139.422 135.874C139.132 135.917 138.793 135.981 138.651 136.243C138.596 136.359 138.57 136.485 138.573 136.613C138.545 137.577 138.822 138.525 139.366 139.32C139.454 139.464 139.569 139.59 139.706 139.689C139.9 139.793 140.115 139.851 140.335 139.86C142.02 140.035 143.721 139.791 145.289 139.149C145.371 139.121 145.442 139.069 145.494 139C145.586 138.837 145.431 138.645 145.31 138.503C144.787 137.856 144.907 136.926 145.056 136.108C145.068 135.95 145.132 135.799 145.24 135.682C145.445 135.543 145.723 135.586 145.877 135.782C146.02 135.976 146.101 136.208 146.11 136.449C146.215 137.29 146.147 138.144 145.912 138.958C146.727 138.767 147.521 138.496 148.283 138.148C148.899 137.908 149.48 137.585 150.01 137.188C150.542 136.785 150.915 136.207 151.064 135.554C151.096 135.433 151.083 135.305 151.029 135.192C150.974 135.114 150.901 135.051 150.816 135.007C150.078 134.528 149.497 133.841 149.146 133.032C149.075 132.861 149.04 132.627 149.196 132.542C149.262 132.52 149.334 132.52 149.401 132.542C150.293 132.691 150.746 133.693 151.482 134.226C151.54 134.274 151.611 134.304 151.687 134.311C151.778 134.311 151.866 134.272 151.927 134.204C152.223 133.928 152.424 133.565 152.501 133.167C152.714 132.385 152.67 131.555 152.373 130.801C152.064 130.045 151.428 129.472 150.646 129.245C150.285 129.161 149.91 129.144 149.542 129.195C149.415 129.195 148.736 129.437 148.644 129.351C148.552 129.266 148.913 128.754 148.998 128.584C149.458 127.532 148.842 126.182 147.986 125.614Z" fill="#231F20"/>
<path d="M158.679 119.184C157.551 119.174 156.491 119.725 155.848 120.654C155.419 121.397 155.245 122.261 155.353 123.113C155.463 123.955 155.667 124.782 155.961 125.578C156.517 124.577 157.528 123.915 158.665 123.809C159.818 123.71 158.474 124.825 158.275 125.06C157.624 125.827 157.002 126.616 156.386 127.412C156.206 127.611 156.085 127.857 156.039 128.122C156.037 128.408 156.121 128.688 156.28 128.925C156.759 129.99 157.487 130.924 158.403 131.646C158.656 131.869 159.013 131.927 159.323 131.796C159.466 131.675 159.574 131.518 159.634 131.341C159.973 130.626 160.414 129.966 160.943 129.38C161.071 129.231 161.276 129.081 161.439 129.188C161.602 129.294 161.573 129.458 161.559 129.614L161.411 131.199C161.312 131.77 161.346 132.356 161.51 132.911C161.885 133.92 163.017 134.424 164.071 134.623C164.359 134.702 164.662 134.702 164.949 134.623C165.515 134.424 165.749 133.749 165.848 133.153C165.959 132.371 166.28 131.634 166.775 131.021C166.904 132.053 167.233 133.05 167.744 133.956C168.001 134.443 168.355 134.871 168.785 135.213C169.242 135.539 169.767 135.758 170.32 135.853C171.254 136.021 172.205 136.074 173.151 136.009C173.806 136.017 174.458 135.933 175.09 135.76C175.727 135.581 176.273 135.168 176.619 134.602C177.178 133.593 176.746 132.293 176.024 131.398C175.303 130.502 174.326 129.834 173.576 128.961C174.512 129.219 175.383 129.674 176.131 130.296C176.309 130.502 176.567 130.621 176.838 130.623C176.963 130.596 177.076 130.532 177.164 130.438C178.282 129.316 176.994 127.419 176.399 126.41C176.083 125.692 175.521 125.112 174.814 124.776C174.396 124.669 173.958 124.669 173.54 124.776C172.903 124.882 169.747 126.324 171.092 124.427C171.825 123.576 172.902 123.104 174.022 123.141C174.567 123.191 175.395 123.632 175.38 122.608C175.342 122.242 175.2 121.894 174.97 121.607C174.532 120.949 174.06 120.316 173.555 119.709C173.429 119.524 173.24 119.39 173.024 119.333C172.836 119.326 172.65 119.378 172.493 119.482C171.202 120.267 169.776 120.802 168.289 121.059C167.95 121.059 167.475 120.953 167.532 120.619C167.566 120.497 167.644 120.393 167.751 120.328C168.65 119.617 169.995 119.923 170.915 119.269C171.192 119.092 171.376 118.8 171.417 118.473C171.417 117.997 171.028 117.621 170.646 117.329C169.691 116.497 168.52 115.952 167.27 115.759C165.409 115.61 163.732 116.839 162.479 118.239C162.062 118.715 161.771 119.951 161.127 119.873C160.721 119.729 160.324 119.56 159.939 119.368C159.531 119.241 159.106 119.178 158.679 119.184Z" fill="#231F20"/>
<path d="M149.663 109.35C149.583 108.631 149.255 107.962 148.736 107.46C147.787 106.593 146.365 106.551 145.098 106.749C144.148 106.953 143.216 107.231 142.31 107.581C141.397 107.844 141.128 108.05 141.942 108.796C142.515 109.314 144.065 111.169 143.357 112.057C142.649 112.945 141.461 110.679 141.001 110.302C140.4 109.714 139.603 109.372 138.764 109.343C138.03 109.469 137.356 109.827 136.839 110.366C136.288 110.856 135.763 111.375 135.268 111.922C135.188 112 135.125 112.095 135.084 112.199C134.971 112.611 135.53 112.853 135.948 112.91C137.144 113.13 138.481 113.755 138.722 114.949C137.49 115.254 136.33 114.004 135.07 114.139C134.141 114.363 133.385 115.037 133.053 115.937C132.713 116.736 132.608 117.616 132.749 118.473C133.812 118.103 134.951 118.005 136.061 118.189C136.199 118.197 136.33 118.255 136.429 118.352C136.534 118.551 136.462 118.797 136.266 118.907C136.074 119.003 135.857 119.04 135.643 119.013H133.591C133.39 118.992 133.188 119.039 133.018 119.148C132.879 119.292 132.799 119.481 132.791 119.681C132.659 120.623 132.647 121.578 132.756 122.523C132.773 123.11 133.001 123.671 133.4 124.101C133.72 124.343 134.094 124.504 134.49 124.569C135.526 124.819 136.587 124.953 137.653 124.967C137.179 124.301 137.06 123.444 137.335 122.672C137.759 121.678 138.481 122.253 138.517 123.156C138.517 123.582 138.439 124.001 138.425 124.427C138.417 124.508 138.432 124.589 138.467 124.662C138.51 124.717 138.566 124.761 138.63 124.79C139.193 125.095 139.848 125.181 140.47 125.031C140.647 124.996 140.814 124.921 140.958 124.811C141.287 124.417 141.399 123.884 141.255 123.39L140.965 120.825C140.933 120.704 140.959 120.575 141.036 120.477C141.163 120.349 141.39 120.477 141.524 120.576C142.052 121.048 142.334 121.737 142.289 122.445C142.289 122.85 142.119 123.241 142.09 123.639C142.032 124.047 142.193 124.455 142.515 124.712C142.856 124.876 143.249 124.896 143.605 124.768C144.078 124.699 144.515 124.471 144.843 124.122C145.125 123.674 145.21 123.128 145.077 122.616C144.936 122.111 144.836 121.595 144.78 121.074C144.78 120.022 145.855 118.516 146.032 120.363C146.039 120.966 146.004 121.57 145.926 122.168C145.909 122.245 145.909 122.325 145.926 122.402C146.021 122.529 146.172 122.601 146.329 122.594C147.162 122.667 147.998 122.505 148.743 122.125C149.256 121.875 149.706 121.51 150.059 121.059C150.321 120.689 150.541 120.291 150.717 119.873C151.573 118.047 152.939 116.619 151.347 114.665C150.802 113.997 149.79 113.819 149.281 113.137C148.679 112.327 149.606 111.041 149.641 110.025C149.666 109.801 149.673 109.575 149.663 109.35Z" fill="#231F20"/>
<path d="M144.56 144.237H162.606L161.191 157.836C160.98 159.905 159.243 161.478 157.171 161.474H149.96C147.891 161.474 146.158 159.903 145.947 157.836L144.56 144.237Z" fill="white"/>
<path fill-rule="evenodd" clip-rule="evenodd" d="M149.96 161.851H157.2C159.439 161.829 161.303 160.117 161.524 157.879L162.939 144.279C162.952 144.178 162.918 144.076 162.847 144.002C162.78 143.924 162.681 143.88 162.578 143.882H144.532C144.427 143.88 144.327 143.924 144.256 144.002C144.19 144.079 144.157 144.179 144.164 144.279L145.579 157.879C145.805 160.137 147.7 161.855 149.96 161.851ZM146.308 157.808L144.964 144.613H162.203L160.851 157.808C160.662 159.69 159.083 161.121 157.2 161.119H149.96C148.076 161.121 146.497 159.69 146.308 157.808Z" fill="#231F20"/>
<path d="M156.089 144.486C156.089 144.358 154.673 131.341 161.042 120.853L161.651 121.223C155.416 131.497 156.803 144.272 156.818 144.4L156.089 144.486Z" fill="#231F20"/>
<path d="M139.698 119.795C139.609 119.793 139.523 119.757 139.458 119.695C139.391 119.629 139.353 119.538 139.353 119.443C139.353 119.348 139.391 119.257 139.458 119.191C143.152 115.283 148.969 112.903 149.217 112.796C149.399 112.723 149.605 112.813 149.677 112.995C149.749 113.177 149.66 113.384 149.479 113.457C149.422 113.457 143.555 115.873 139.967 119.674C139.899 119.752 139.801 119.796 139.698 119.795Z" fill="white"/>
<path d="M142.19 137.899C142.067 137.898 141.953 137.833 141.889 137.727C141.826 137.621 141.822 137.49 141.878 137.38C143.22 134.849 144.923 132.527 146.931 130.488C146.996 130.421 147.086 130.384 147.179 130.384C147.272 130.384 147.361 130.421 147.426 130.488C147.561 130.626 147.561 130.847 147.426 130.986C145.476 132.975 143.822 135.236 142.515 137.7C142.453 137.823 142.327 137.9 142.19 137.899Z" fill="white"/>
<path d="M172.281 132.868C172.162 132.867 172.052 132.809 171.983 132.712C171.813 132.449 167.737 126.317 162.904 122.694C162.747 122.576 162.716 122.353 162.833 122.196C162.952 122.043 163.171 122.012 163.328 122.125C168.155 125.784 172.132 131.661 172.571 132.314C172.677 132.477 172.633 132.696 172.472 132.804C172.416 132.846 172.349 132.868 172.281 132.868Z" fill="white"/>
<rect x="127.441" y="9.45" width="42.964" height="30.2826" fill="white"/>
<path fill-rule="evenodd" clip-rule="evenodd" d="M127.441 40.0879H170.398C170.594 40.0879 170.752 39.9288 170.752 39.7326V9.45C170.752 9.2538 170.594 9.09474 170.398 9.09474H127.441C127.246 9.09474 127.087 9.2538 127.087 9.45V39.7326C127.087 39.9288 127.246 40.0879 127.441 40.0879ZM170.044 39.3774H127.795V9.80527H170.044V39.3774Z" fill="#D1D3D4"/>
<path d="M155.169 68.4805C154.994 68.4798 154.845 68.3543 154.815 68.1821L153.074 56.8421L150.031 58.1921C149.944 58.2301 149.847 58.232 149.759 58.1973C149.671 58.1626 149.601 58.0942 149.564 58.0074C149.526 57.9217 149.524 57.8245 149.559 57.7376C149.594 57.6507 149.662 57.5815 149.748 57.5455L153.222 56.0392C153.32 55.9898 153.436 55.9898 153.534 56.0392C153.631 56.0918 153.699 56.186 153.718 56.295L155.529 68.0542C155.546 68.1478 155.523 68.244 155.467 68.3204C155.411 68.3969 155.326 68.447 155.232 68.4592L155.169 68.4805Z" fill="#231F20"/>
<path d="M161.17 80.6519H152.31L151.828 61.5032H161.651L161.17 80.6519Z" fill="white"/>
<path fill-rule="evenodd" clip-rule="evenodd" d="M152.31 81H161.17C161.334 80.9888 161.469 80.865 161.495 80.7016L161.977 61.5174C161.973 61.3202 161.819 61.159 161.623 61.1479H151.8C151.704 61.1508 151.612 61.1916 151.545 61.2616C151.48 61.3305 151.444 61.4224 151.446 61.5174L151.956 80.6589C151.963 80.8496 152.12 81.0001 152.31 81ZM160.844 80.2895H152.678L152.189 61.8513H161.304L160.844 80.2895Z" fill="#231F20"/>
<rect x="150.93" y="59.5634" width="11.6203" height="1.93974" fill="white"/>
<path fill-rule="evenodd" clip-rule="evenodd" d="M150.93 61.8584H162.55C162.745 61.8584 162.904 61.6994 162.904 61.5032V59.5634C162.904 59.3672 162.745 59.2082 162.55 59.2082H150.93C150.734 59.2082 150.576 59.3672 150.576 59.5634V61.5032C150.576 61.6994 150.734 61.8584 150.93 61.8584ZM162.196 61.1479H151.283V59.9187H162.196V61.1479Z" fill="#231F20"/>
<path fill-rule="evenodd" clip-rule="evenodd" d="M152.76 71.8211C153.533 73.3965 155.188 74.3353 156.931 74.186C159.174 74.0824 160.912 72.1759 160.816 69.9229C160.81 68.167 159.732 66.5945 158.1 65.9617C156.469 65.3288 154.618 65.765 153.437 67.0604C152.257 68.3559 151.988 70.2457 152.76 71.8211ZM153.416 68.329C154.079 67.0203 155.476 66.256 156.931 66.4058C158.784 66.509 160.205 68.0976 160.108 69.9584C160.101 71.4267 159.194 72.739 157.827 73.2607C156.46 73.7824 154.914 73.406 153.937 72.3136C152.96 71.2211 152.753 69.6377 153.416 68.329Z" fill="#D1D3D4"/>
<path fill-rule="evenodd" clip-rule="evenodd" d="M137.505 33.2953C138.324 33.5815 139.185 33.7303 140.052 33.7358C142.027 33.6424 143.93 32.9651 145.523 31.7889C147.264 30.6592 148.028 29.5437 147.858 28.3784C147.686 27.6784 147.329 27.0379 146.825 26.5239C146.391 26.1068 146.084 25.5746 145.94 24.9892C145.964 24.3256 146.18 23.6834 146.563 23.1418C147.662 21.3461 147.771 19.1113 146.853 17.216C145.82 15.2195 143.654 13.8908 140.909 13.5782C138.93 13.3817 136.977 14.1445 135.65 15.6316C134.44 17.0595 133.945 18.9643 134.306 20.8042C134.362 21.0884 134.433 21.3797 134.511 21.6782L134.519 21.7106C134.799 22.8709 135.064 23.966 134.362 24.7192C134.027 25.0175 133.644 25.2576 133.23 25.4297C132.607 25.6639 132.066 26.0765 131.673 26.6163C131.426 27.0716 131.341 27.5981 131.433 28.1084C131.687 29.5137 132.51 30.7506 133.704 31.526L133.704 31.5261C133.938 31.6824 134.171 31.8387 134.412 31.9737C135.397 32.5145 136.433 32.9572 137.505 33.2953ZM137.731 32.6203C136.703 32.2956 135.71 31.8696 134.766 31.3484V31.3839C134.547 31.255 134.334 31.1151 134.129 30.9647C133.097 30.3008 132.379 29.2439 132.14 28.0374C132.072 27.6846 132.124 27.319 132.289 27C132.615 26.5823 133.052 26.2648 133.549 26.0834C134.043 25.8711 134.495 25.5728 134.886 25.2024C135.855 24.1656 135.509 22.7527 135.205 21.5098L135.205 21.5076C135.134 21.2234 135.063 20.9392 135.006 20.6692C134.688 19.0451 135.123 17.3637 136.188 16.1005C137.359 14.7824 139.087 14.1063 140.838 14.2816C143.343 14.5729 145.31 15.7595 146.23 17.5429C147.041 19.2485 146.923 21.2522 145.919 22.8505C145.472 23.502 145.238 24.2764 145.247 25.0674C145.402 25.7923 145.763 26.4563 146.287 26.9787C146.704 27.3963 147.007 27.9152 147.165 28.485C147.271 29.3447 146.634 30.2258 145.148 31.1992C143.06 32.5279 140.718 33.6434 137.731 32.6203Z" fill="#D1D3D4"/>
<path fill-rule="evenodd" clip-rule="evenodd" d="M154.036 32.4284C155.712 33.1313 157.507 33.5052 159.323 33.5297C160.379 33.551 161.433 33.4048 162.444 33.0963C164.586 32.4175 166.257 30.7214 166.909 28.5632C167.366 26.9092 166.922 25.1361 165.742 23.895C163.59 21.5218 158.12 20.5768 155.289 21.5218C154.68 21.739 154.084 21.9929 153.506 22.2821C152.623 22.7646 151.666 23.096 150.675 23.2626C149.382 23.3152 148.092 23.1174 146.874 22.68C145.176 22.1968 143.428 21.7066 141.786 22.4171C140.082 23.2589 139.121 25.116 139.415 27C139.655 28.5255 140.329 29.9491 141.354 31.0997C142.562 32.6453 144.465 33.4738 146.414 33.3024C147.273 33.1525 148.103 32.8722 148.877 32.4711C150.313 31.4937 152.177 31.4221 153.682 32.2863L154.036 32.4284ZM151.658 30.9718H151.489C150.481 31.0454 149.501 31.3362 148.615 31.8245C147.908 32.1931 147.149 32.4541 146.365 32.5989C144.242 32.8689 142.671 31.4763 141.921 30.6308C140.975 29.5822 140.351 28.2821 140.123 26.8863C139.873 25.3206 140.652 23.7708 142.055 23.0424C143.459 22.4189 145.011 22.8622 146.648 23.3297L146.662 23.3337C147.969 23.7993 149.353 24.0067 150.738 23.9447C151.798 23.7575 152.819 23.395 153.76 22.8718C154.314 22.6001 154.883 22.3628 155.466 22.1613C158.056 21.2874 163.229 22.2039 165.168 24.3355C166.184 25.4027 166.568 26.9263 166.18 28.35C165.586 30.2721 164.088 31.7782 162.175 32.3787C159.558 33.1008 156.772 32.8821 154.298 31.7605L153.958 31.6184C153.235 31.2697 152.457 31.0509 151.658 30.9718Z" fill="#D1D3D4"/>
<path fill-rule="evenodd" clip-rule="evenodd" d="M155.806 27.1492C156.432 27.877 157.362 28.2688 158.318 28.2079L158.764 28.2221C160.625 28.1799 162.427 27.5593 163.923 26.4458C166.768 24.1366 165.855 21.8558 165.055 20.7047C162.798 17.4505 155.876 15.1555 152.147 17.3582C150.782 18.191 149.831 19.5638 149.528 21.1382C149.281 22.3401 149.568 23.5907 150.314 24.5629C150.983 25.3485 151.953 25.8131 152.982 25.8418C153.554 25.8917 154.112 26.0433 154.631 26.2895C155.064 26.5132 155.461 26.8033 155.806 27.1492ZM152.508 17.9337C153.509 17.3937 154.634 17.1289 155.77 17.1663C159.068 17.1663 162.96 18.8929 164.475 21.0813C165.6 22.7368 165.282 24.3924 163.477 25.8632C162.087 26.8649 160.431 27.4266 158.721 27.476C157.819 27.6592 156.889 27.3352 156.294 26.6305C155.46 25.722 154.309 25.1722 153.081 25.0958C152.233 25.0865 151.43 24.7142 150.873 24.0726C150.25 23.2675 150.014 22.2269 150.229 21.2305C150.494 19.859 151.321 18.6625 152.508 17.9337Z" fill="#D1D3D4"/>
<path d="M50.317 25.6216C50.317 25.6216 52.6028 23.76 50.317 21.3584H46.6299C46.6299 21.3584 47.4225 24.4634 46.6299 25.6216H50.317Z" fill="#231F20"/>
<path fill-rule="evenodd" clip-rule="evenodd" d="M46.6298 25.9768H50.3169C50.3893 25.9714 50.4583 25.9441 50.5151 25.8987C51.1624 25.3376 51.5723 24.5499 51.6615 23.6961C51.6721 22.7156 51.2653 21.7772 50.5434 21.1168C50.4743 21.0513 50.3836 21.0134 50.2886 21.0103H46.6015C46.4916 21.0096 46.3874 21.0593 46.3185 21.1453C46.2555 21.2363 46.2325 21.3493 46.2548 21.4579C46.4671 22.275 46.8846 24.5842 46.3114 25.4155C46.2441 25.5294 46.2441 25.6711 46.3114 25.785C46.3752 25.902 46.497 25.9753 46.6298 25.9768ZM50.1754 25.2663H47.1818C47.3962 24.0892 47.3528 22.8793 47.0545 21.7208H50.14C50.6627 22.2235 50.957 22.9196 50.9538 23.6463C50.8945 24.2621 50.6185 24.8365 50.1754 25.2663Z" fill="#231F20"/>
<path d="M48.3141 24.2147C48.4228 23.3744 48.1257 22.5325 47.5145 21.9482C47.2441 21.595 46.9329 21.2754 46.5874 20.9961C45.9237 20.5628 45.1801 20.268 44.4006 20.1292C42.6809 19.71 40.6711 20.2429 38.916 20.2784C37.0307 20.3143 35.1577 19.9663 33.4101 19.2553C32.8097 19.0517 32.2712 18.697 31.8461 18.225C31.4074 20.8042 31.464 23.6463 32.9431 25.8134C34.1963 27.4493 35.9289 28.6495 37.8969 29.2453C40.5605 30.3241 43.5961 29.8817 45.8443 28.0871C46.8535 27.3221 47.6324 26.2917 48.0948 25.11C48.1973 24.8196 48.2708 24.5197 48.3141 24.2147Z" fill="white"/>
<path fill-rule="evenodd" clip-rule="evenodd" d="M37.7483 29.5792C38.7779 29.9585 39.8646 30.158 40.9613 30.1689C42.8167 30.1558 44.612 29.5065 46.0496 28.3287C47.1076 27.5204 47.925 26.4368 48.4133 25.1953C48.5343 24.8834 48.6221 24.5594 48.6751 24.2289C48.8047 23.2882 48.4817 22.3415 47.8047 21.6782C47.5117 21.3092 47.1821 20.9712 46.821 20.6692C46.1172 20.2073 45.3276 19.8931 44.4997 19.7455C43.2564 19.5286 41.9852 19.5286 40.7419 19.7455C40.6603 19.7546 40.5792 19.7639 40.4988 19.773C39.9512 19.8353 39.4291 19.8947 38.9231 19.8947C37.0805 19.9516 35.245 19.64 33.5234 18.9782C32.9829 18.7923 32.4967 18.475 32.108 18.0545C32.0242 17.943 31.8821 17.8927 31.7471 17.9266C31.6125 17.9626 31.5106 18.0733 31.4853 18.2108C30.9262 21.4508 31.3083 24.0868 32.6317 26.0266C33.9248 27.7194 35.7144 28.962 37.7483 29.5792ZM33.2191 25.6074C32.0797 23.9234 31.7117 21.7208 32.0797 18.9497C32.4363 19.2178 32.8236 19.442 33.2333 19.6176C35.0331 20.3383 36.9574 20.6933 38.8948 20.6621C39.4585 20.6489 40.0585 20.587 40.6388 20.5272C40.6851 20.5224 40.7313 20.5176 40.7773 20.5129C41.9482 20.3107 43.1448 20.3107 44.3157 20.5129C45.048 20.6422 45.7478 20.915 46.3751 21.3158C46.6961 21.5636 46.9903 21.8446 47.2527 22.1542C47.7896 22.6671 48.0522 23.4054 47.9603 24.1437C47.9095 24.4254 47.8313 24.7015 47.7268 24.9679C47.2917 26.0926 46.5573 27.0757 45.6037 27.81C43.4455 29.5208 40.5404 29.941 37.989 28.9113C36.0925 28.341 34.4234 27.1849 33.2191 25.6074Z" fill="#231F20"/>
<rect x="92" y="5.69131" width="30.0486" height="19.9232" fill="white"/>
<path fill-rule="evenodd" clip-rule="evenodd" d="M92 25.9768H122.049C122.242 25.9731 122.399 25.8162 122.402 25.6216V5.68421C122.399 5.48959 122.242 5.33273 122.049 5.32895H92C91.8045 5.32895 91.6461 5.48801 91.6461 5.68421V25.6216C91.6461 25.8178 91.8045 25.9768 92 25.9768ZM121.723 25.2663H92.3255L92.3538 6.04658H121.723V25.2663Z" fill="#D1D3D4"/>
<rect x="92" y="25.6216" width="30.0486" height="3.94342" fill="white"/>
<path fill-rule="evenodd" clip-rule="evenodd" d="M92 29.9203H122.049C122.244 29.9203 122.402 29.7612 122.402 29.565V25.6216C122.402 25.4254 122.244 25.2663 122.049 25.2663H92C91.8045 25.2663 91.6461 25.4254 91.6461 25.6216V29.565C91.6461 29.7612 91.8045 29.9203 92 29.9203ZM121.723 29.2097H92.3255L92.3538 25.9768H121.723V29.2097Z" fill="#D1D3D4"/>
<path d="M95.4394 20.9818C95.3013 20.9873 95.1732 20.91 95.1133 20.785C95.0534 20.66 95.0731 20.5113 95.1634 20.4063C95.5031 19.98 103.656 9.94026 111.256 10.5442C114.285 10.7858 116.352 12.3774 116.79 14.8074C117.197 16.9466 116.12 19.0929 114.165 20.0368C112.042 21.0245 110.074 21.0103 108.702 19.9942C107.487 19.0206 106.923 17.4426 107.244 15.9158C107.302 14.5906 108.192 13.4488 109.459 13.0737C110.763 12.7284 112.152 13.1232 113.082 14.1039C113.512 14.5795 113.605 15.272 113.316 15.8447C112.778 16.8892 112.141 17.4363 111.419 17.4647C110.266 17.4647 109.416 16.1503 109.381 16.0934C109.332 16.0125 109.317 15.9152 109.339 15.8231C109.362 15.731 109.42 15.6518 109.501 15.6032C109.581 15.554 109.677 15.5391 109.767 15.5618C109.858 15.5846 109.935 15.643 109.982 15.7239C110.166 16.0153 110.754 16.7897 111.398 16.7542C112.042 16.7187 112.403 16.0437 112.686 15.5179C112.846 15.1956 112.783 14.8067 112.53 14.5516C111.781 13.7873 110.683 13.4837 109.65 13.7558C108.66 14.0626 107.974 14.9682 107.944 16.0082C107.667 17.2742 108.121 18.5892 109.119 19.4116C110.273 20.2713 112.006 20.2642 113.868 19.4116C115.535 18.5934 116.438 16.7453 116.062 14.921C115.686 12.8392 113.861 11.4679 111.171 11.2547C103.974 10.6579 95.7932 20.7474 95.7154 20.8539C95.6466 20.9353 95.5456 20.9821 95.4394 20.9818Z" fill="#D1D3D4"/>
<path fill-rule="evenodd" clip-rule="evenodd" d="M95.5951 44.145H107.173C107.368 44.145 107.527 43.9859 107.527 43.7897V34.5529C107.527 34.3567 107.368 34.1976 107.173 34.1976H95.5951C95.3996 34.1976 95.2412 34.3567 95.2412 34.5529V43.7897C95.2412 43.9859 95.3996 44.145 95.5951 44.145ZM106.819 43.4345H95.9489V34.9082H106.819V43.4345Z" fill="#D1D3D4"/>
<path d="M101.384 36.2368C101.189 36.2368 101.03 36.0778 101.03 35.8816V33.6718C101.03 33.4756 101.189 33.3166 101.384 33.3166C101.579 33.3166 101.738 33.4756 101.738 33.6718V35.8674C101.742 35.964 101.706 36.0581 101.639 36.1278C101.573 36.1975 101.48 36.2369 101.384 36.2368Z" fill="#D1D3D4"/>
</svg>
